# xmcd
#
# Track frame offsets: 
#        150
#        39262
#        66912
#        97027
#        125155
#        158625
#
# Disc length: 2520 seconds
#
# Revision: 4
# Processed by: cddbd v1.5.2PL0 Copyright (c) Steve Scherf et al.
# Submitted via: ExactAudioCopy v0.95b4
#
DISCID=4c09d606
DTITLE=Jutta Hipp - Jutta Hipp With Zoot Sims
DYEAR=1956
DGENRE=Jazz
TTITLE0=Just Blues
TTITLE1=Violets For Your Furs
TTITLE2=Down Home
TTITLE3=Almost Like Being In Love
TTITLE4=Wee-Dot
TTITLE5=Too Close For Comfort
EXTD=Jerry Lloyd\ttrumpet\nZoot Sims\ttenor saxophone\nJutta Hipp\tpia
EXTD=no\nAhmed Abdul-Malik\tbass\nEd Thigpen\tdrums\n\nProduced by Alf
EXTD=red Lion\nRecording engineer - Rudy Van Gelder\nRecorded at the V
EXTD=an Gelder Studio, New Jersey on July 28, 1956\nCover Design by Re
EXTD=id Miles\n\nBlue Note 1530 YEAR: 1956
EXTT0=(Zoot Sims)
EXTT1=(Adair - Dennis)
EXTT2=(Jerry Lloyd)
EXTT3=(Lerner - Loewe)
EXTT4=(J.J. Johnson - L. Parker)
EXTT5=(Bock - Holofcener - Weiss)
PLAYORDER=
